<svg width="29" height="27" viewBox="0 0 29 27" fill="none" xmlns="http://www.w3.org/2000/svg">
<g clip-path="url(#clip0_112_459)">
<path d="M5.58602 0.341143H23.2135C23.8484 0.340545 24.4771 0.465154 25.0638 0.70784C25.6505 0.950525 26.1836 1.30652 26.6325 1.75546C27.0814 2.20439 27.4374 2.73745 27.6801 3.32413C27.9228 3.91081 28.0474 4.53959 28.0468 5.17448V22.1196C28.0474 22.7545 27.9228 23.3832 27.6801 23.9699C27.4374 24.5566 27.0814 25.0897 26.6325 25.5386C26.1836 25.9875 25.6505 26.3435 25.0638 26.5862C24.4771 26.8289 23.8484 26.9535 23.2135 26.9529H5.58602C4.95113 26.9535 4.32235 26.8289 3.73568 26.5862C3.149 26.3435 2.61594 25.9875 2.167 25.5386C1.71807 25.0897 1.36207 24.5566 1.11938 23.9699C0.876699 23.3832 0.752089 22.7545 0.752688 22.1196V5.17448C0.752089 4.53959 0.876699 3.91081 1.11938 3.32413C1.36207 2.73745 1.71807 2.20439 2.167 1.75546C2.61594 1.30652 3.149 0.950525 3.73568 0.70784C4.32235 0.465154 4.95113 0.340545 5.58602 0.341143Z" fill="#AA88E0"/>
<path d="M5.57471 18.9808V7.35803C5.57471 7.2443 5.60882 7.18744 5.68843 7.17606C5.89314 7.16469 6.21157 7.15332 6.64373 7.15332C7.07588 7.15332 7.53079 7.14195 8.03118 7.13057C8.53157 7.1192 8.98647 7.1192 9.40726 7.1192C10.408 7.1192 11.2041 7.23293 11.7955 7.44901C12.3071 7.61942 12.7736 7.90322 13.1602 8.2792C13.4546 8.57528 13.6731 8.93813 13.7971 9.33685C13.9015 9.66413 13.9552 10.0055 13.9563 10.349C13.9644 10.7137 13.9026 11.0766 13.7743 11.418C13.6742 11.7004 13.5239 11.9624 13.3308 12.1914C13.1936 12.3686 13.0284 12.5222 12.8418 12.6463C13.1024 12.7853 13.3465 12.9531 13.5696 13.1467C13.8566 13.4004 14.0888 13.7099 14.252 14.0565C14.4573 14.4977 14.5585 14.9801 14.5476 15.4667C14.5575 16.1641 14.3422 16.8461 13.9335 17.4114C13.4827 18.0065 12.8711 18.4603 12.1708 18.7192C11.4088 19.0263 10.499 19.1855 9.43 19.1855H8.22451C7.83784 19.1855 7.4853 19.1855 7.16686 19.1741C6.84843 19.1627 6.56412 19.1627 6.3253 19.1514C6.08647 19.14 5.88177 19.14 5.71118 19.14C5.6202 19.14 5.57471 19.0831 5.57471 18.9808ZM8.04255 9.30273V11.8502H9.28216C9.61196 11.8502 9.93039 11.8616 10.2488 11.8729C10.478 11.8731 10.7065 11.8959 10.9312 11.9412C11.0911 11.8024 11.2258 11.6369 11.3292 11.4521C11.4382 11.2252 11.4927 10.976 11.4884 10.7243C11.5009 10.4361 11.4168 10.1519 11.2496 9.91685C11.0711 9.69972 10.8344 9.53797 10.5673 9.45057C10.1955 9.33571 9.8076 9.28194 9.41863 9.29136H8.88412C8.7249 9.29136 8.57706 9.29136 8.45196 9.30273C8.32686 9.29136 8.19039 9.30273 8.04255 9.30273ZM8.04255 13.9996V17.0247C8.24726 17.0361 8.45196 17.0474 8.66804 17.0474C8.88412 17.0474 9.12294 17.0588 9.41863 17.0588C9.86743 17.0683 10.3153 17.0147 10.7492 16.8996C11.0817 16.8184 11.3825 16.6403 11.6135 16.3878C11.8127 16.1446 11.9176 15.8378 11.9092 15.5235C11.9164 15.2182 11.8334 14.9175 11.6704 14.6592C11.5112 14.4204 11.2155 14.2384 10.7947 14.1247C10.6301 14.0834 10.4629 14.053 10.2943 14.0337C10.0714 14.011 9.84743 13.9996 9.62333 13.9996H8.04255Z" fill="white"/>
<path d="M21.9056 15.2733H18.3005C18.344 15.6179 18.4645 15.9483 18.6531 16.24C18.8541 16.5465 19.1436 16.7845 19.4833 16.9223C19.9444 17.1119 20.4407 17.2011 20.939 17.1839C21.3354 17.1842 21.7312 17.15 22.1217 17.0816C22.4888 17.0154 22.8473 16.9086 23.1907 16.7631C23.2476 16.7176 23.2817 16.7404 23.2817 16.8541V18.5941C23.2797 18.6404 23.2721 18.6862 23.259 18.7306C23.2384 18.7625 23.2113 18.7896 23.1794 18.8102C22.7987 18.9902 22.3978 19.1238 21.9852 19.2082C21.4533 19.3105 20.9119 19.3563 20.3703 19.3447C19.506 19.3447 18.7782 19.2082 18.1868 18.9467C17.6303 18.7051 17.1392 18.3348 16.7539 17.8663C16.3938 17.4281 16.1268 16.9212 15.9692 16.3765C15.6359 15.2419 15.6518 14.0333 16.0146 12.9078C16.196 12.3384 16.4856 11.8094 16.8676 11.3498C17.2437 10.8953 17.7129 10.5269 18.2437 10.2694C18.839 9.99649 19.488 9.86047 20.1429 9.87136C20.7493 9.85729 21.3513 9.97769 21.9056 10.2239C22.3753 10.4355 22.7854 10.7597 23.0997 11.1678C23.402 11.5563 23.6331 11.9952 23.7821 12.4643C23.9267 12.9125 23.9996 13.3808 23.9982 13.8518C23.9982 14.1247 23.9868 14.3635 23.9754 14.5796C23.9641 14.7957 23.9413 14.9549 23.9299 15.0572C23.9249 15.0966 23.9062 15.133 23.8771 15.16C23.848 15.1871 23.8104 15.203 23.7707 15.2051C23.7025 15.2051 23.5774 15.2165 23.3954 15.2278C23.1765 15.2527 22.9562 15.2641 22.7358 15.2619C22.4743 15.2619 22.2013 15.2733 21.9056 15.2733ZM18.3005 13.4878H20.7001C20.9958 13.4878 21.2119 13.4878 21.3484 13.4765C21.436 13.475 21.5234 13.4674 21.6099 13.4537V13.34C21.6104 13.1969 21.5874 13.0548 21.5417 12.9192C21.4422 12.608 21.2441 12.3377 20.9774 12.1489C20.7107 11.9602 20.3899 11.8633 20.0633 11.8729C19.7546 11.8556 19.4476 11.928 19.1792 12.0814C18.9108 12.2348 18.6925 12.4625 18.5507 12.7372C18.4236 12.9707 18.3389 13.2248 18.3005 13.4878Z" fill="white"/>
</g>
<defs>
<clipPath id="clip0_112_459">
<rect width="27.2941" height="26.6118" fill="white" transform="translate(0.752686 0.341156)"/>
</clipPath>
</defs>
</svg>
