<svg width="27" height="27" viewBox="0 0 27 27" fill="none" xmlns="http://www.w3.org/2000/svg">
<path d="M22.7812 0H4.21875C1.8888 0 0 1.8888 0 4.21875V22.7812C0 25.1112 1.8888 27 4.21875 27H22.7812C25.1112 27 27 25.1112 27 22.7812V4.21875C27 1.8888 25.1112 0 22.7812 0Z" fill="#AA88E0"/>
<path d="M13.5 5.71687C16.0181 5.71687 16.3614 5.71687 17.3916 5.71687C18.3072 5.71687 18.7651 5.94578 19.1084 6.06024C19.5663 6.28916 19.9096 6.40362 20.253 6.74699C20.5964 7.09036 20.8253 7.43374 20.9398 7.89157C21.0542 8.23494 21.1687 8.69277 21.2831 9.60844C21.2831 10.6386 21.2831 10.8675 21.2831 13.5C21.2831 16.1325 21.2831 16.3614 21.2831 17.3916C21.2831 18.3072 21.0542 18.7651 20.9398 19.1084C20.7108 19.5663 20.5964 19.9096 20.253 20.253C19.9096 20.5964 19.5663 20.8253 19.1084 20.9398C18.7651 21.0542 18.3072 21.1687 17.3916 21.2831C16.3614 21.2831 16.1325 21.2831 13.5 21.2831C10.8675 21.2831 10.6386 21.2831 9.60844 21.2831C8.69277 21.2831 8.23494 21.0542 7.89157 20.9398C7.43374 20.7108 7.09036 20.5964 6.74699 20.253C6.40362 19.9096 6.1747 19.5663 6.06024 19.1084C5.94578 18.7651 5.83133 18.3072 5.71687 17.3916C5.71687 16.3614 5.71687 16.1325 5.71687 13.5C5.71687 10.8675 5.71687 10.6386 5.71687 9.60844C5.71687 8.69277 5.94578 8.23494 6.06024 7.89157C6.28916 7.43374 6.40362 7.09036 6.74699 6.74699C7.09036 6.40362 7.43374 6.1747 7.89157 6.06024C8.23494 5.94578 8.69277 5.83133 9.60844 5.71687C10.6386 5.71687 10.9819 5.71687 13.5 5.71687ZM13.5 4C10.8675 4 10.6386 4 9.60844 4C8.57831 4 7.89157 4.22892 7.31928 4.45783C6.74699 4.68675 6.1747 5.03012 5.60241 5.60241C5.03012 6.1747 4.80121 6.63253 4.45783 7.31928C4.22892 7.89157 4.11446 8.57831 4 9.60844C4 10.6386 4 10.9819 4 13.5C4 16.1325 4 16.3614 4 17.3916C4 18.4217 4.22892 19.1084 4.45783 19.6807C4.68675 20.253 5.03012 20.8253 5.60241 21.3976C6.1747 21.9699 6.63253 22.1988 7.31928 22.5422C7.89157 22.7711 8.57831 22.8855 9.60844 23C10.6386 23 10.9819 23 13.5 23C16.0181 23 16.3614 23 17.3916 23C18.4217 23 19.1084 22.7711 19.6807 22.5422C20.253 22.3133 20.8253 21.9699 21.3976 21.3976C21.9699 20.8253 22.1988 20.3675 22.5422 19.6807C22.7711 19.1084 22.8855 18.4217 23 17.3916C23 16.3614 23 16.0181 23 13.5C23 10.9819 23 10.6386 23 9.60844C23 8.57831 22.7711 7.89157 22.5422 7.31928C22.3133 6.74699 21.9699 6.1747 21.3976 5.60241C20.8253 5.03012 20.3675 4.80121 19.6807 4.45783C19.1084 4.22892 18.4217 4.11446 17.3916 4C16.3614 4 16.1325 4 13.5 4Z" fill="white"/>
<path d="M13.5 8.57831C10.753 8.57831 8.57831 10.753 8.57831 13.5C8.57831 16.247 10.753 18.4217 13.5 18.4217C16.247 18.4217 18.4217 16.247 18.4217 13.5C18.4217 10.753 16.247 8.57831 13.5 8.57831ZM13.5 16.7048C11.7831 16.7048 10.2952 15.3313 10.2952 13.5C10.2952 11.7831 11.6687 10.2952 13.5 10.2952C15.2169 10.2952 16.7048 11.6687 16.7048 13.5C16.7048 15.2169 15.2169 16.7048 13.5 16.7048Z" fill="white"/>
<path d="M18.5361 9.60844C19.1683 9.60844 19.6807 9.09599 19.6807 8.46386C19.6807 7.83172 19.1683 7.31928 18.5361 7.31928C17.904 7.31928 17.3916 7.83172 17.3916 8.46386C17.3916 9.09599 17.904 9.60844 18.5361 9.60844Z" fill="white"/>
</svg>
