<svg width="28" height="28" viewBox="0 0 28 28" fill="none" xmlns="http://www.w3.org/2000/svg">
<g clip-path="url(#clip0_112_458)">
<path d="M14.3531 2.45754C17.9994 2.45754 18.4312 2.47353 19.8652 2.5375C21.198 2.59614 21.9176 2.82004 22.3974 3.00662C23.0318 3.25184 23.4902 3.55037 23.9647 4.02482C24.4445 4.5046 24.7377 4.95772 24.9829 5.5921C25.1695 6.07188 25.3934 6.79688 25.452 8.12426C25.516 9.5636 25.532 9.99541 25.532 13.6364C25.532 17.2827 25.516 17.7145 25.452 19.1485C25.3934 20.4813 25.1695 21.2009 24.9829 21.6807C24.7377 22.3151 24.4391 22.7735 23.9647 23.248C23.4849 23.7278 23.0318 24.021 22.3974 24.2662C21.9176 24.4528 21.1926 24.6767 19.8652 24.7353C18.4259 24.7993 17.9941 24.8153 14.3531 24.8153C10.7068 24.8153 10.275 24.7993 8.84098 24.7353C7.50826 24.6767 6.78859 24.4528 6.30881 24.2662C5.67444 24.021 5.21598 23.7224 4.74153 23.248C4.26175 22.7682 3.96855 22.3151 3.72333 21.6807C3.53675 21.2009 3.31286 20.4759 3.25422 19.1485C3.19025 17.7092 3.17425 17.2774 3.17425 13.6364C3.17425 9.99007 3.19025 9.55827 3.25422 8.12426C3.31286 6.79154 3.53675 6.07188 3.72333 5.5921C3.96855 4.95772 4.26708 4.49926 4.74153 4.02482C5.22131 3.54504 5.67444 3.25184 6.30881 3.00662C6.78859 2.82004 7.51359 2.59614 8.84098 2.5375C10.275 2.47353 10.7068 2.45754 14.3531 2.45754ZM14.3531 0C10.6482 0 10.1844 0.0159926 8.72903 0.0799632C7.27903 0.143934 6.28216 0.378493 5.41855 0.714338C4.51764 1.06618 3.75532 1.52996 2.99833 2.29228C2.23602 3.04926 1.77223 3.81158 1.42039 4.70717C1.08455 5.5761 0.849989 6.56765 0.786018 8.01765C0.722047 9.47831 0.706055 9.9421 0.706055 13.6471C0.706055 17.352 0.722047 17.8158 0.786018 19.2711C0.849989 20.7211 1.08455 21.718 1.42039 22.5816C1.77223 23.4825 2.23602 24.2449 2.99833 25.0018C3.75532 25.7588 4.51764 26.2279 5.41322 26.5744C6.28216 26.9103 7.2737 27.1449 8.7237 27.2088C10.179 27.2728 10.6428 27.2888 14.3478 27.2888C18.0527 27.2888 18.5165 27.2728 19.9719 27.2088C21.4219 27.1449 22.4187 26.9103 23.2823 26.5744C24.1779 26.2279 24.9402 25.7588 25.6972 25.0018C26.4542 24.2449 26.9233 23.4825 27.2698 22.587C27.6057 21.718 27.8402 20.7265 27.9042 19.2765C27.9682 17.8211 27.9842 17.3574 27.9842 13.6524C27.9842 9.94743 27.9682 9.48364 27.9042 8.02831C27.8402 6.57831 27.6057 5.58143 27.2698 4.71783C26.934 3.81158 26.4702 3.04926 25.7079 2.29228C24.9509 1.53529 24.1886 1.06618 23.293 0.719669C22.4241 0.383824 21.4325 0.149265 19.9825 0.0852941C18.5219 0.0159927 18.0581 0 14.3531 0Z" fill="#AA88E0"/>
<path d="M14.3531 6.63695C10.4829 6.63695 7.34302 9.77684 7.34302 13.6471C7.34302 17.5173 10.4829 20.6572 14.3531 20.6572C18.2233 20.6572 21.3632 17.5173 21.3632 13.6471C21.3632 9.77684 18.2233 6.63695 14.3531 6.63695ZM14.3531 18.1943C11.8423 18.1943 9.80589 16.1579 9.80589 13.6471C9.80589 11.1362 11.8423 9.09982 14.3531 9.09982C16.864 9.09982 18.9004 11.1362 18.9004 13.6471C18.9004 16.1579 16.864 18.1943 14.3531 18.1943Z" fill="#AA88E0"/>
<path d="M23.2771 6.35976C23.2771 7.26601 22.5414 7.99634 21.6405 7.99634C20.7342 7.99634 20.0039 7.26068 20.0039 6.35976C20.0039 5.45351 20.7396 4.72318 21.6405 4.72318C22.5414 4.72318 23.2771 5.45884 23.2771 6.35976Z" fill="#AA88E0"/>
</g>
<defs>
<clipPath id="clip0_112_458">
<rect width="27.2941" height="27.2941" fill="white" transform="translate(0.706055)"/>
</clipPath>
</defs>
</svg>
