<svg width="27" height="27" viewBox="0 0 27 27" fill="none" xmlns="http://www.w3.org/2000/svg">
<path d="M22.7812 0H4.21875C1.8888 0 0 1.8888 0 4.21875V22.7812C0 25.1112 1.8888 27 4.21875 27H22.7812C25.1112 27 27 25.1112 27 22.7812V4.21875C27 1.8888 25.1112 0 22.7812 0Z" fill="#AA88E0"/>
<path d="M9.78751 20.25H6.91875V11.2219H9.78751V20.25ZM8.35313 9.95625C7.425 9.95625 6.75 9.28125 6.75 8.35312C6.75 7.425 7.50938 6.75 8.35313 6.75C9.28125 6.75 9.95625 7.425 9.95625 8.35312C9.95625 9.28125 9.28125 9.95625 8.35313 9.95625ZM20.25 20.25H17.3813V15.3563C17.3813 13.9219 16.7906 13.5 15.9469 13.5C15.1031 13.5 14.2594 14.175 14.2594 15.4406V20.25H11.3906V11.2219H14.0906V12.4875C14.3437 11.8969 15.3562 10.9688 16.7906 10.9688C18.3937 10.9688 20.0813 11.8969 20.0813 14.6812V20.25H20.25Z" fill="white"/>
</svg>
