<svg xmlns="http://www.w3.org/2000/svg" fill="none" viewBox="0 0 1440 897"><g clip-path="url(#a)"><path fill="#FAFDFA" d="M0 0h1440v897H0z"/><g filter="url(#b)"><path fill="#AA88E0" d="M320 433c-124-37-175 10-175 77 6 54 54 56 70 72 19 20 22 79 95 82s73-26 114-66 20-128-104-165Z"/></g><g filter="url(#c)"><path fill="#A9DCB6" d="M565 352c-25 121 21 131 92 123 55-12 40-60 55-77 19-21 102 3 98-66-5-69-63-37-110-71-46-33-110-30-135 91Z"/></g><g filter="url(#d)"><path fill="#AF7AC3" d="M1081 497c-79 71-38 129 42 161 65 21 81-13 105-16 29-5 99 21 124-30 24-50-10-64-46-112s-147-74-225-3Z"/></g></g><defs><filter id="b" width="698" height="644" x="-55" y="220" color-interpolation-filters="sRGB" filterUnits="userSpaceOnUse"><feFlood flood-opacity="0" result="BackgroundImageFix"/><feBlend in="SourceGraphic" in2="BackgroundImageFix" result="shape"/><feGaussianBlur result="effect1_foregroundBlur_60_63" stdDeviation="100"/></filter><filter id="c" width="451.5" height="434" x="458" y="143" color-interpolation-filters="sRGB" filterUnits="userSpaceOnUse"><feFlood flood-opacity="0" result="BackgroundImageFix"/><feBlend in="SourceGraphic" in2="BackgroundImageFix" result="shape"/><feGaussianBlur result="effect1_foregroundBlur_60_63" stdDeviation="50"/></filter><filter id="d" width="821.3" height="711.3" x="789" y="203" color-interpolation-filters="sRGB" filterUnits="userSpaceOnUse"><feFlood flood-opacity="0" result="BackgroundImageFix"/><feBlend in="SourceGraphic" in2="BackgroundImageFix" result="shape"/><feGaussianBlur result="effect1_foregroundBlur_60_63" stdDeviation="125"/></filter><clipPath id="a"><path fill="#fff" d="M0 0h1440v897H0z"/></clipPath></defs></svg>